<svg xmlns="http://www.w3.org/2000/svg" viewBox="0 0 1200 630" role="img" aria-label="Chin-Wei Aaron Hsieh academic portfolio">
  <rect width="1200" height="630" fill="#f7f8f6"/>
  <rect x="72" y="72" width="1056" height="486" rx="18" fill="#0e3f45"/>
  <path d="M72 420 C220 340 325 465 470 392 C620 316 700 180 880 244 C990 283 1048 372 1128 322 L1128 558 L72 558 Z" fill="#195d63"/>
  <path d="M72 482 C245 430 362 515 510 462 C668 405 760 322 930 356 C1036 378 1086 434 1128 410 L1128 558 L72 558 Z" fill="#8a4f28" opacity="0.72"/>
  <text x="112" y="190" fill="#f4faf8" font-family="Arial, Helvetica, sans-serif" font-size="56" font-weight="700">Chin-Wei (Aaron) Hsieh</text>
  <text x="112" y="262" fill="#d9ece8" font-family="Arial, Helvetica, sans-serif" font-size="34">Atmospheric Science | Cloud-Resolving Modeling</text>
  <text x="112" y="316" fill="#d9ece8" font-family="Arial, Helvetica, sans-serif" font-size="34">High-Performance Computation</text>
  <text x="112" y="440" fill="#f4faf8" font-family="Arial, Helvetica, sans-serif" font-size="28">Building atmospheric models from formulation to GPU/HPC implementation.</text>
</svg>
